<svg xmlns="http://www.w3.org/2000/svg" version="1.1" xmlns:xlink="http://www.w3.org/1999/xlink" xmlns:svgjs="http://svgjs.dev/svgjs" viewBox="0 0 1422 800"><defs><linearGradient x1="50%" y1="0%" x2="50%" y2="100%" id="ssscribble-grad"><stop stop-color="hsl(206, 1%, 60%)" stop-opacity="1" offset="0%"></stop><stop stop-color="hsl(0, 0%, 83%)" stop-opacity="1" offset="100%"></stop></linearGradient></defs><g fill="none" stroke-width="2" stroke="url(#ssscribble-grad)" stroke-linecap="round" stroke-dasharray="26"><path d="M1267.77 390.76C1366.59 420.55 1385.36 465.31 1291.63 480.87 1207.08 494.71 1235.47 517.22 1312.87 530.52 1352.3 543.27 1363.93 559.27 1344.33 579.87 1297.97 605.77 1235.54 637.45 1171.09 675.12 1116.33 717 1081.17 762.82 1068.56 810.4 1077.98 855.8 1102.49 897.08 1133.43 930.48 1176.67 957.96 1182.67 929.66 1140.41 884.89 1098.36 855.58 1051.19 832.89 1003.02 822.99 954.55 831.01 910.15 857.08 871.01 899.45 835.92 952.41 806.4 1007.98 781.48 1056.49 760.03 1089.25 741.35 1099.87 724.05 1085.85 708.37 1051.72 692.45 1003.84 675.37 953.34 658.67 913.99 640.04 894.2 619.16 899.79 598.27 930.86 575.63 978.18 551.65 1029.82 528.05 1075.03 503.9 1101.67 480.19 1104.01 458.11 1082.32 438.1 1040.27 421.66 986.59 408.69 931.14 401.12 883.67 400.02 851.35 402.97 838.41 412.08 844.37 426.26 865.31 440.14 897.2 454.03 931.15 463.89 960.22 463.95 980.8 452.88 987.19 427.7 978.41 388.51 955.65 337.04 920.68 277.83 877.48 219.52 829.05 168.94 780.1 134.87 734.1 122.81 692.44 134.73 657.73 167.74 630.36 231.54 603.3 267.02 582.65 197.95 580.4 66.58 575.29 188.82 541.66 220 519.76 188.4 504.07 126.89 485.75 57.77 464.87 7.32 443.99 -3.96 421.03 27.08 396.05 88.32 370.93 158.04 343.54 212.43 313.85 234.28 283.83 219.06 251.39 175.38 216.76 118.16 182.19 69.55 146.11 45.67 109.43 53.42 74.57 92.51 41.1 152.3 10.77 219.14 -14.61 277.45 -34.16 316.31 -46.16 330.22 -50.97 320.39 -47.36 293.81 -35.58 257.23 -19.45 223.05 0.81 199.61 21.87 190.34 37.7 199.58 46.62 225.54 44.71 265.38 28.84 314.05 -0.79 365.94 -43.1 418.57 -93.91 466.42 -148.11 507.32 -198.63 541.52 -238.19 567.73 -261.18 587.3 -263.56 600.88 -246.54 610.59 -212.67 618.49 -169.02 626.5 -111.07 649.14 -108.18 667.61 -173.9 681 -229.67 698.06 -279.11 718.94 -310.19 739.82 -315.79 764.04 -293.9 791.32 -250.42 818.53 -195.79 848.61 -141.76 880.98 -99.57 912.63 -77.48 945.53 -78.12 978.3 -99.09 1008.29 -135.81 1035.68 -177.78 1058.29 -215.45 1079.45 -247.04 1070.21 -190.97 1042.49 -118.46 1022.78 -64.97 1005.19 -15.68 995.22 24.8 999.14 53.81 1018.57 70.1 1055.2 74.88 1106.01 68.85 1166.25 56.25 1227.5 40.73 1289.41 4.78 1164.07 26.44 1160.58 59.52 1199.76 86.44 1261.96 115.49 1330.96 145.37 1386.44 176.72 1411.64 207.52 1397.87 237.01 1351.55 266.87 1287.97 294.86 1230.86 320.62 1203.92 346.42 1217.31 369.86 1267.74 390.75Q1267.77 390.76 1267.77 390.76" opacity="0.91"></path><path d="M1212.77 289.78C1275.53 308.76 1332.07 327.1 1364.75 344.92 1364.84 362.96 1331.48 380.94 1275.12 399.26 1211.5 418.44 1157.67 438.76 1126.53 460.83 1124.61 484.57 1149.25 510.88 1191.04 540.2 1239.33 571.54 1278.89 606.01 1299.63 643.33 1297.37 681.4 1270.88 720.77 1225.75 759.92 1169.27 796.18 1111.38 828.9 1060.58 855.8 1073.22 800.05 1049.87 832.3 1005.13 902.9 970.51 952.88 935.19 996.95 900.71 1028.33 865.54 1042.62 832.58 1037.13 802.34 1012.51 772.35 974.71 745.15 929.44 720.79 885.58 696.58 853.46 674.96 838.58 655.97 844.79 636.99 872.14 621.09 913.6 608.33 960.38 591.08 1020.45 573.99 1029.9 573.6 975.8 573.64 926.4 575.24 876.02 576.96 831.66 572.76 789.48 530.85 798.67 484.5 835.78 443.45 864.71 395.75 889.56 344.32 906.75 294.81 915.39 250.42 912.65 216.66 898.99 197.7 875.73 195.88 844.34 211.77 807.47 240.15 766.52 276.9 724.59 313.61 683.78 338.97 644.28 347.07 608.39 332.4 576.6 294.73 548.27 239.69 524.06 177.48 503.34 103.28 477.94 118.79 437.91 197.47 419.23 246.5 407.29 274.28 394.06 270.43 379.12 233.99 364.34 175.53 347.54 112.77 328.55 65.53 309.57 49.97 288.85 70.05 266.66 118.81 244.62 181.91 221.41 241.06 197.55 280.42 174.38 290.8 151.3 272.17 129.13 230.53 108.7 180.42 90.37 136.49 75.17 109.04 62.99 107.13 55.12 131.05 52.27 176.06 52.88 233.35 58.52 292.15 68.75 376.21 103.63 316.96 99.48 285.66 57.95 275.99 18.35 278.49 -27.63 292.4 -76.33 316.19 -122.59 348.03 -162.21 384.85 -190.3 425.86 -203.86 467.38 -200.95 507.4 -181.89 546.95 -151.45 583.12 -113.43 615.6 -74.75 646.29 -44.44 673.6 -27.33 698.12 -28.1 721.43 -48.69 742.92 -85.9 763.18 -133.9 783.09 -184.44 802.44 -227.82 821.42 -255.18 840.41 -261.41 858.58 -244.61 875.65 -208.74 892.36 -161.13 907.31 -110.26 919.81 -65.13 935.02 -25.9 943.45 -58.71 935.57 -110.63 923.74 -159.58 902.74 -179.33 907.42 -142.57 922.77 -103.21 948.53 -57.62 985.37 -10.38 1030.83 35.41 1082.89 75.75 1136.85 108.54 1185.1 138.91 1099.99 111.67 1150.05 112.03 1207.89 115.61 1270.36 123.02 1322.72 133.73 1352.07 146.1 1350.75 160.95 1318.71 177.58 1266.89 195.05 1209.38 213.52 1164.38 232.45 1148.05 251.61 1165.53 270.79 1212.77 289.78Q1212.77 289.78 1212.77 289.78" opacity="0.48"></path><path d="M1157.74 352.28C1214.09 369.37 1266.88 388.35 1302.65 409.15 1313.72 430.01 1296.51 452.79 1255.81 477.44 1144.44 527.1 1070.23 583.99 1080.07 645 1155.4 701.39 1224.13 752.61 1233.03 788.75 1174.57 805.09 1076.93 796.53 985.79 764.48 927.97 728.41 913.64 699.17 926.98 698.56 957.57 740.51 979.96 818.03 984.75 907.31 977.99 972.17 954.55 983.57 922.04 934.07 904.12 896.13 885.61 855.53 867.2 818.92 848.51 793.69 830.47 783.16 813.38 789.78 796.29 813.57 780.56 849.29 765.97 890.69 751.11 932.35 736.82 966.28 722.52 987.37 690.58 983.5 651.86 920.29 599.39 831.05 535.39 753.75 456.71 716.29 373.46 721.74 290.09 783.05 360.66 824.04 412.1 762.53 367.63 699.01 268.25 631.67 167.87 568.86 132.98 508.15 187.74 456.13 285.92 411.95 320.03 390.66 332.21 370.69 317.76 351.85 278.61 333.16 224.09 315.29 167.74 298.2 124.04 281.12 105.37 265.22 115.76 250.62 151.73 236.18 204.76 223.36 262.01 212.43 335.25 187.08 176.18 192.62 237.95 209 341.14 204.69 429.58 181.97 472.79 132.63 466.45 60.35 432.55 -24.38 399.3 -99.16 375.96 -140.2 380.19 -133.39 407.24 -81.15 450.1 -16.96 501.25 26.81 551.02 17.5 576.85 -10.17 601 -49.12 623 -94.16 645.09 -138.93 664.8 -176.39 681.89 -200.19 698.98 -206.82 713.03 -194.57 724.22 -165.97 735.51 -125.98 744.15 -80.35 750.54 -35.81 765.22 26.87 776.24 34.93 792.6 -4.86 824.77 -69.09 876.82 -115.97 952.83 -122.35 1038.75 -86.16 1121.71 -16.4 1172.83 64.44 1174.41 141.28 1126.49 198.9 1058.88 235.23 1029.06 251.76 1066.97 256.82 1167 259.65 1219.74 275.5 1103.84 327.81 1157.74 352.28Q1157.74 352.28 1157.74 352.28" opacity="0.65"></path><path d="M1102.77 485.57C1202.25 515.94 1257.75 550.66 1229.76 587.58 1139.74 622.57 1046.78 655.8 1004.48 682.43 1061.63 704.36 1154.96 668.5 1070.02 631.06 984.22 624.04 907.66 639.7 853.18 684.92 822.09 754.33 810.69 833.54 807.9 898.73 813.5 928.46 814.16 910.96 805.37 852.24 796.4 784.04 776.79 735.7 746.42 734.79 716.04 786.56 676.33 860.13 628.02 918.14 579.52 937.19 523.6 905.04 465.37 836.84 415.52 756.69 376.89 690.36 361.17 653.17 368.83 649.78 401.78 670.6 447.76 700.39 476.84 732.55 472.93 750.28 420.53 749.7 332.23 734.59 241.11 704.13 193.63 665.05 213.67 619.41 289.35 573.12 367.64 530.42 383.91 486.92 322.25 449.23 222.77 418.85 161.34 388.48 187.95 366.85 278.89 353.07 370.57 338.47 405.56 329.51 373.18 322.51 300.02 308.95 242.07 289.39 234.25 257.69 280.4 211.46 362.69 150.12 448.42 78.15 538.39 -35.65 514.21 79.36 531.79 56.03 550.2 -13.68 575.74 -93.41 606.11 -145.19 636.49 -144.3 670.26 -89.81 709.13 -9.89 750.85 60.55 802.07 95.35 863.93 87.89 927.86 44.97 995.51 -6.99 1054.97 -44.78 1092.37 -58.37 1099.46 -38.02 1070.69 8.8 1024.77 73.27 978.5 142.45 963.97 205.98 1003.4 262.22 1088.58 306.11 1184.01 339.89 1238.67 365.9 1220.99 387.92 1141.04 410.22 1061.81 430.59 1041.34 455.18 1102.74 485.56Q1102.77 485.57 1102.77 485.57" opacity="0.07"></path><path d="M1047.34 491.76C1135.03 518.34 1195.18 540 1194.09 555.91 1134.79 570.66 1047.52 577.81 974.62 576.57 944.33 573.88 961.41 564.37 1006.93 551.59 1061.15 545.64 1094.23 546.53 1095.07 561.38 1065.46 595 1011.74 646.71 948.5 712.11 881.4 779.14 822.46 835.72 774.84 866.27 734.66 864.09 703.27 827.85 676.6 768.79 652.62 712.58 628.31 677.3 601.74 679.65 575.16 722.75 547.56 785.53 521.42 842.73 497.97 877.22 481 873.43 475.12 834.48 476.68 772.11 491.85 702.49 517.99 641.7 540.27 598.96 555.83 578.51 550.6 576.54 514.93 590.76 450.33 609.83 368.44 626 274.78 643.4 354.62 620.95 439.74 588.95 430.57 564.34 365.03 537.96 277.34 511.38 219.54 484.8 228.85 459.28 296.37 433.77 384.46 406.59 448.79 376.34 463.94 340.61 428.74 300.02 370.24 251.45 320.53 195.49 297.38 138.35 314.93 81.13 364.42 32.07 434.15 -0.78 506.15 -11.86 567.79 3.2 616.94 36.32 649.63 82.09 670.82 124.99 682.51 144.46 691.94 133.12 704.46 88.39 715.26 20.94 733.15 -47.22 759.73 -90.33 786.31 -92.7 820.32 -52.04 859.64 14.42 897.24 83.74 936.17 135.11 970.53 156.79 995.41 145.71 1006.48 112.97 998.3 73.62 960.7 25.79 901.21 55.53 959.02 121.07 1036.41 174.82 1118.75 228.1 1173.43 276.85 1177.76 324.15 1128.56 365.35 1050.72 400.73 993.46 434.95 989.54 465.19 1047.34 491.76Q1047.34 491.76 1047.34 491.76" opacity="0.62"></path><path d="M992.25 361.73C1097.51 392.77 1087.81 427.23 981.9 436.24 919.06 445.19 885.1 456.29 882.76 473.11 908.58 498.75 946.44 534.2 981.44 580.14 1008.97 632.72 1017.42 689.49 1007.49 742.98 983.26 784.51 947.88 807.47 908.19 805.53 864.13 781.56 822.49 738.11 786.25 686.03 749.87 643.45 719.82 619.89 697.04 624.62 674.26 659.56 659.82 710.94 653.24 762.88 646.61 813.29 650.42 753.04 638.48 670.01 613.29 613.01 572.14 564.83 514.75 529.04 449.89 506.27 385.02 494.89 335.48 490.79 314.09 494.1 327.63 498.01 373.76 499.04 456.5 499.5 439.82 469.57 332.25 438.58 279.2 415.8 274.62 387.73 317.63 354.88 389.3 321.8 462.09 283.81 511.36 242.14 524.36 201.63 503.77 160.2 464.17 121.78 400.33 80.1 396.81 78.86 455.86 122.73 508.5 156.61 561.31 187.04 609.13 203.79 655.26 197.11 694.22 166.85 726.56 116.29 757.43 55.55 783.97 -0.43 806.75 -35.37 829.54 -40.1 847.48 -11.93 859.57 39.44 870.2 100.31 872.68 156.72 866.03 197.4 850.05 214.77 817.29 151.05 838.48 113.45 880.05 97.36 940.73 94.63 1011.46 104.1 1074.77 122.38 1115.8 148.81 1119.5 179.34 1086.92 213.5 1027.09 247.55 964.22 278.97 930 310.98 939.2 338.95 992.25 361.73Q992.25 361.73 992.25 361.73" opacity="0.56"></path><path d="M937.77 288.41C1000.53 307.39 1055.52 326.48 1086.12 346.08 1086.38 366.52 1054.86 389 1002.07 414.62 940.1 442.77 883.01 475.68 840.65 513.58 817.31 553.7 812.98 597.25 822.35 641.42 843.4 681.49 866.21 715.49 884.99 738.43 901.96 748.11 909.94 741.82 909.14 719.15 904.31 686.52 892.94 646.22 877.39 606.03 860.48 577.19 841.91 563.57 822.93 569.79 803.94 597.14 785.44 637.07 766.55 680.47 746.29 721.9 723.13 750.55 695.06 762.1 662.96 757.19 623.71 735.05 577.48 700.29 529.45 656.86 479.37 610.08 433.45 564.82 399.2 522.14 381.01 485.59 384.59 455.65 407.18 431.12 447.24 411.72 495.29 395.59 534.17 382.52 554.88 369.91 547.3 356.15 509.36 343.15 450.53 327.48 387.77 308.49 340.53 289.51 325.93 268.11 346.32 245.31 394.08 223.27 456.11 201.33 515.89 181.51 493.64 222.03 534.6 210.13 574.02 141.65 600.93 90.92 624.56 47.14 643.55 19.79 662.53 13.57 675.97 31.03 684.86 67.21 694.76 114.72 702.27 165.82 710.08 212.37 722.68 248.95 740.33 272.28 766.39 282.37 801.2 279.19 846.16 267.71 899.34 252.51 953.38 233.23 1004.28 216.93 1042.53 206.08 1060.76 197.44 1054.34 195.78 1022.67 200.53 976.8 207.82 925.57 219.87 885.15 235.24 872.08 251.44 890.53 269.42 937.77 288.41Q937.77 288.41 937.77 288.41" opacity="0.85"></path><path d="M882.77 380.44C982.25 410.81 1034.17 456.07 1007.45 511.83 924.19 565.76 830.42 622.31 765.39 665.05 736.08 683.65 733.64 667.47 734.73 615.88 742.79 559.28 734.47 515.7 704.09 514.79 673.71 566.56 624.16 635.18 563.46 684.47 509.73 702.69 464.76 676.86 454.27 624.07 479.48 556.18 541.03 489.78 602.03 435.48 606.49 384.67 542.25 344.34 442.77 313.97 381.34 283.59 409.49 266.05 496.95 264.21 618.7 275.36 616.87 322.73 591.75 279.05 584.6 207.49 598.07 126.56 628.45 74.79 658.82 75.69 703.22 131.59 763.01 210.45 826.58 284.31 902.35 332.7 967.55 353.91 985.76 346.42 829.26 343.74 882.74 380.43Q882.77 380.44 882.77 380.44" opacity="0.40"></path><path d="M827.49 501.39C902.89 524.17 959.12 550.46 974.73 575.21 951.55 595.59 896.91 606.53 833.7 601.23 769.28 585.34 717.43 552.33 679.92 509.16 648.49 475.27 623.21 454.97 600.43 459.7 577.65 494.64 559.52 542.29 551.47 585.96 549.5 622.25 565.79 635.97 600.36 628.57 633.71 607.16 664.18 574.39 670.67 539.85 638.36 502.32 572.89 469.75 497.49 446.96 444.31 424.18 441.44 413.35 482.82 411.4 550.64 406.46 621.9 403.68 677.85 395.22 716.99 372.77 738.58 334.88 752.26 281.89 759.23 221.52 771.26 164.64 794.04 129.7 816.82 124.97 848.19 154.51 880.71 205.1 906.51 264.96 920.48 322.14 911.2 367.88 885.11 403.05 838.01 427.66 786.88 446.77 762.2 461.49 774.31 478.61 827.49 501.39Q827.49 501.39 827.49 501.39" opacity="0.27"></path><path d="M772.52 471.9C848.32 462.38 713.98 485.83 738.85 543.81 721.41 557.88 652 540.63 552.52 510.26 491.29 479.88 522.84 442.13 596.18 388.25 682.58 319.79 747.44 236.49 777.82 184.71 808.2 185.62 798.34 244.36 751.74 314.41 718.22 386.16 711.29 441.53 772.52 471.9Q772.52 471.9 772.52 471.9" opacity="0.08"></path></g></svg>